<?xml version="1.0" encoding="UTF-8" standalone="no"?>
<!-- Generator: Adobe Illustrator 23.0.5, SVG Export Plug-In . SVG Version: 6.00 Build 0)  -->

<svg
   version="1.1"
   id="Capa_1"
   x="0px"
   y="0px"
   viewBox="0 0 646.49998 255.9"
   xml:space="preserve"
   sodipodi:docname="cangraph-logo.svg"
   width="646.5"
   height="255.89999"
   inkscape:version="1.2.1 (9c6d41e410, 2022-07-14)"
   inkscape:export-filename="cangraph-logo.png"
   inkscape:export-xdpi="100"
   inkscape:export-ydpi="100"
   xmlns:inkscape="http://www.inkscape.org/namespaces/inkscape"
   xmlns:sodipodi="http://sodipodi.sourceforge.net/DTD/sodipodi-0.dtd"
   xmlns:xlink="http://www.w3.org/1999/xlink"
   xmlns="http://www.w3.org/2000/svg"
   xmlns:svg="http://www.w3.org/2000/svg"><g
   id="g946"
   style="fill:url(#linearGradient1204);fill-opacity:1;stroke:none;stroke-opacity:1"
   transform="translate(-93.3,-152.4)"><g
     id="g18"
     style="fill:url(#linearGradient1188);fill-opacity:1;stroke:none;stroke-opacity:1">
		<path
   class="st3"
   d="m 445.3,272.2 -58.9,34 v 68 l 58.9,34 58.9,-34 v -68 z m 38.4,90.2 -17,9.8 v -18.9 h -42.3 v 19.2 l -17.5,-10.1 v -44.3 l 38.4,-22.2 38.4,22.2 z"
   id="path14"
   style="fill:url(#linearGradient1184);fill-opacity:1;stroke:none;stroke-opacity:1" />
		<polygon
   class="st3"
   points="424.4,327.7 424.4,336.5 466.7,336.5 466.7,327.7 445.6,315.5 "
   id="polygon16"
   style="fill:url(#linearGradient1186);fill-opacity:1;stroke:none;stroke-opacity:1" />
	</g><g
     id="g24"
     style="fill:url(#linearGradient1192);fill-opacity:1;stroke:none;stroke-opacity:1">
		<polygon
   class="st4"
   points="642.5,362.4 659.7,372.4 659.7,353.3 702,353.3 702,372.4 719.3,362.4 719.3,318.1 702,308.1 702,336.5 659.7,336.5 659.7,308.1 642.5,318.1 "
   id="polygon20"
   style="fill:none;fill-opacity:1;stroke:none;stroke-opacity:1" />
		<path
   class="st5"
   d="m 680.9,272.2 -58.9,34 v 68 l 58.9,34 58.9,-34 v -68 z m 38.4,90.2 -17.3,10 v -19.1 h -42.3 v 19.1 l -17.3,-10 v -44.3 l 17.3,-10 v 28.4 H 702 v -28.4 l 17.3,10 z"
   id="path22"
   style="fill:url(#linearGradient1190);fill-opacity:1;stroke:none;stroke-opacity:1" />
	</g><g
     id="g30"
     style="fill:url(#linearGradient1198);fill-opacity:1;stroke:none;stroke-opacity:1">
		<polygon
   class="st6"
   points="524.7,322.6 524.7,322.6 524.7,318.1 563.1,296 601.5,318.1 601.5,352.2 584.2,352.2 584.2,352.2 542,352.2 542,396.2 563.1,408.3 622,374.3 622,306.3 563.1,272.3 504.2,306.3 504.2,374.3 524.7,386.2 "
   id="polygon26"
   style="fill:url(#linearGradient1194);fill-opacity:1;stroke:none;stroke-opacity:1" />
		<polygon
   class="st6"
   points="584.2,335.4 584.2,328.1 563.1,315.9 542,328.1 542,335.4 "
   id="polygon28"
   style="fill:url(#linearGradient1196);fill-opacity:1;stroke:none;stroke-opacity:1" />
	</g><path
     class="st7"
     d="m 209.7,272.2 -58.9,34 v 68 l 58.9,34 58.9,-34 v -68 z m 38.4,90.2 -38.4,22.2 -38.4,-22.2 v -44.3 l 38.4,-22.2 v 19.9 L 188.6,328 v 24.4 l 21.1,12.2 21.1,-12.2 V 345 h -18.9 v -10.6 h 18.9 17.3 z"
     id="path32"
     style="fill:url(#linearGradient1200);fill-opacity:1;stroke:none;stroke-opacity:1" /><path
     class="st8"
     d="m 327.5,272.2 -58.9,34 v 68 l 58.9,34 58.9,-34 v -68 z m 38.4,73.2 h -10.5 -6.8 -9.1 l 14.9,23.3 -14.1,9 -20.6,-32.3 h -0.1 v -12.1 h 29.1 v -5.2 l -21.1,-12.2 -21.1,12.2 v 44.3 l -17.3,-10 v -44.3 l 38.4,-22.2 38.4,22.2 v 27.3 z"
     id="path34"
     style="fill:url(#linearGradient1202);fill-opacity:1;stroke:none;stroke-opacity:1" /></g><defs
   id="defs41"><linearGradient
   inkscape:collect="always"
   id="linearGradient989"><stop
     style="stop-color:#c02020;stop-opacity:1;"
     offset="0"
     id="stop985" /><stop
     style="stop-color:#800020;stop-opacity:1;"
     offset="0.25"
     id="stop993" /><stop
     style="stop-color:#602080;stop-opacity:1;"
     offset="0.5"
     id="stop995" /><stop
     style="stop-color:#4020c0;stop-opacity:1;"
     offset="0.75"
     id="stop997" /><stop
     style="stop-color:#0059c4;stop-opacity:1;"
     offset="1"
     id="stop987" /></linearGradient><linearGradient
   inkscape:collect="always"
   id="linearGradient975"><stop
     style="stop-color:#000000;stop-opacity:1;"
     offset="0"
     id="stop971" /><stop
     style="stop-color:#000000;stop-opacity:0.8;"
     offset="0.19844449"
     id="stop979" /><stop
     style="stop-color:#000000;stop-opacity:0.61568627;"
     offset="0.5"
     id="stop981" /><stop
     style="stop-color:#000000;stop-opacity:0.36862745;"
     offset="0.94999999"
     id="stop983" /><stop
     style="stop-color:#000000;stop-opacity:0;"
     offset="1"
     id="stop973" /></linearGradient><linearGradient
   inkscape:collect="always"
   id="linearGradient929"><stop
     style="stop-color:#ffc040;stop-opacity:1;"
     offset="0"
     id="stop925" /><stop
     style="stop-color:#ff8040;stop-opacity:1;"
     offset="0.5"
     id="stop933" /><stop
     style="stop-color:#ff4060;stop-opacity:1;"
     offset="1"
     id="stop927" /></linearGradient>
	
	
	
	
	
	
	
	
<linearGradient
   inkscape:collect="always"
   xlink:href="#linearGradient929"
   id="linearGradient931"
   x1="93.300003"
   y1="220.55"
   x2="446.5"
   y2="220.55"
   gradientUnits="userSpaceOnUse" /><linearGradient
   inkscape:collect="always"
   xlink:href="#linearGradient975"
   id="linearGradient977"
   x1="150.3"
   y1="340.24976"
   x2="740.29999"
   y2="340.24976"
   gradientUnits="userSpaceOnUse" /><linearGradient
   inkscape:collect="always"
   xlink:href="#linearGradient989"
   id="linearGradient991"
   x1="150.8"
   y1="340.25"
   x2="739.79999"
   y2="340.25"
   gradientUnits="userSpaceOnUse" /><linearGradient
   inkscape:collect="always"
   xlink:href="#linearGradient989"
   id="linearGradient1184"
   gradientUnits="userSpaceOnUse"
   x1="150.8"
   y1="340.25"
   x2="739.79999"
   y2="340.25" /><linearGradient
   inkscape:collect="always"
   xlink:href="#linearGradient989"
   id="linearGradient1186"
   gradientUnits="userSpaceOnUse"
   x1="150.8"
   y1="340.25"
   x2="739.79999"
   y2="340.25" /><linearGradient
   inkscape:collect="always"
   xlink:href="#linearGradient989"
   id="linearGradient1188"
   gradientUnits="userSpaceOnUse"
   x1="150.8"
   y1="340.25"
   x2="739.79999"
   y2="340.25" /><linearGradient
   inkscape:collect="always"
   xlink:href="#linearGradient989"
   id="linearGradient1190"
   gradientUnits="userSpaceOnUse"
   x1="150.8"
   y1="340.25"
   x2="739.79999"
   y2="340.25" /><linearGradient
   inkscape:collect="always"
   xlink:href="#linearGradient989"
   id="linearGradient1192"
   gradientUnits="userSpaceOnUse"
   x1="150.8"
   y1="340.25"
   x2="739.79999"
   y2="340.25" /><linearGradient
   inkscape:collect="always"
   xlink:href="#linearGradient989"
   id="linearGradient1194"
   gradientUnits="userSpaceOnUse"
   x1="150.8"
   y1="340.25"
   x2="739.79999"
   y2="340.25" /><linearGradient
   inkscape:collect="always"
   xlink:href="#linearGradient989"
   id="linearGradient1196"
   gradientUnits="userSpaceOnUse"
   x1="150.8"
   y1="340.25"
   x2="739.79999"
   y2="340.25" /><linearGradient
   inkscape:collect="always"
   xlink:href="#linearGradient989"
   id="linearGradient1198"
   gradientUnits="userSpaceOnUse"
   x1="150.8"
   y1="340.25"
   x2="739.79999"
   y2="340.25" /><linearGradient
   inkscape:collect="always"
   xlink:href="#linearGradient989"
   id="linearGradient1200"
   gradientUnits="userSpaceOnUse"
   x1="150.8"
   y1="340.25"
   x2="739.79999"
   y2="340.25" /><linearGradient
   inkscape:collect="always"
   xlink:href="#linearGradient989"
   id="linearGradient1202"
   gradientUnits="userSpaceOnUse"
   x1="150.8"
   y1="340.25"
   x2="739.79999"
   y2="340.25" /><linearGradient
   inkscape:collect="always"
   xlink:href="#linearGradient989"
   id="linearGradient1204"
   gradientUnits="userSpaceOnUse"
   x1="150.8"
   y1="340.25"
   x2="739.79999"
   y2="340.25" /><linearGradient
   inkscape:collect="always"
   xlink:href="#linearGradient929"
   id="linearGradient1206"
   gradientUnits="userSpaceOnUse"
   x1="93.300003"
   y1="220.55"
   x2="446.5"
   y2="220.55" /><linearGradient
   inkscape:collect="always"
   xlink:href="#linearGradient929"
   id="linearGradient1208"
   gradientUnits="userSpaceOnUse"
   x1="93.300003"
   y1="220.55"
   x2="446.5"
   y2="220.55" /><linearGradient
   inkscape:collect="always"
   xlink:href="#linearGradient929"
   id="linearGradient1210"
   gradientUnits="userSpaceOnUse"
   x1="93.300003"
   y1="220.55"
   x2="446.5"
   y2="220.55" /><linearGradient
   inkscape:collect="always"
   xlink:href="#linearGradient929"
   id="linearGradient1212"
   gradientUnits="userSpaceOnUse"
   x1="93.300003"
   y1="220.55"
   x2="446.5"
   y2="220.55" /><linearGradient
   inkscape:collect="always"
   xlink:href="#linearGradient989"
   id="linearGradient1214"
   gradientUnits="userSpaceOnUse"
   x1="150.8"
   y1="340.25"
   x2="739.79999"
   y2="340.25" /><linearGradient
   inkscape:collect="always"
   xlink:href="#linearGradient989"
   id="linearGradient1216"
   gradientUnits="userSpaceOnUse"
   x1="150.8"
   y1="340.25"
   x2="739.79999"
   y2="340.25" /><linearGradient
   inkscape:collect="always"
   xlink:href="#linearGradient989"
   id="linearGradient1218"
   gradientUnits="userSpaceOnUse"
   x1="150.8"
   y1="340.25"
   x2="739.79999"
   y2="340.25" /><linearGradient
   inkscape:collect="always"
   xlink:href="#linearGradient989"
   id="linearGradient1220"
   gradientUnits="userSpaceOnUse"
   x1="150.8"
   y1="340.25"
   x2="739.79999"
   y2="340.25" /><linearGradient
   inkscape:collect="always"
   xlink:href="#linearGradient989"
   id="linearGradient1222"
   gradientUnits="userSpaceOnUse"
   x1="150.8"
   y1="340.25"
   x2="739.79999"
   y2="340.25" /><linearGradient
   inkscape:collect="always"
   xlink:href="#linearGradient989"
   id="linearGradient1224"
   gradientUnits="userSpaceOnUse"
   x1="150.8"
   y1="340.25"
   x2="739.79999"
   y2="340.25" /><linearGradient
   inkscape:collect="always"
   xlink:href="#linearGradient989"
   id="linearGradient1226"
   gradientUnits="userSpaceOnUse"
   x1="150.8"
   y1="340.25"
   x2="739.79999"
   y2="340.25" /><linearGradient
   inkscape:collect="always"
   xlink:href="#linearGradient989"
   id="linearGradient1228"
   gradientUnits="userSpaceOnUse"
   x1="150.8"
   y1="340.25"
   x2="739.79999"
   y2="340.25" /><linearGradient
   inkscape:collect="always"
   xlink:href="#linearGradient989"
   id="linearGradient1230"
   gradientUnits="userSpaceOnUse"
   x1="150.8"
   y1="340.25"
   x2="739.79999"
   y2="340.25" /><linearGradient
   inkscape:collect="always"
   xlink:href="#linearGradient989"
   id="linearGradient1232"
   gradientUnits="userSpaceOnUse"
   x1="150.8"
   y1="340.25"
   x2="739.79999"
   y2="340.25" /><linearGradient
   inkscape:collect="always"
   xlink:href="#linearGradient989"
   id="linearGradient1234"
   gradientUnits="userSpaceOnUse"
   x1="150.8"
   y1="340.25"
   x2="739.79999"
   y2="340.25" /><linearGradient
   inkscape:collect="always"
   xlink:href="#linearGradient929"
   id="linearGradient1236"
   gradientUnits="userSpaceOnUse"
   x1="93.300003"
   y1="220.55"
   x2="446.5"
   y2="220.55" /><linearGradient
   inkscape:collect="always"
   xlink:href="#linearGradient929"
   id="linearGradient1238"
   gradientUnits="userSpaceOnUse"
   x1="93.300003"
   y1="220.55"
   x2="446.5"
   y2="220.55" /><linearGradient
   inkscape:collect="always"
   xlink:href="#linearGradient929"
   id="linearGradient1240"
   gradientUnits="userSpaceOnUse"
   x1="93.300003"
   y1="220.55"
   x2="446.5"
   y2="220.55" /></defs><sodipodi:namedview
   id="namedview39"
   pagecolor="#ffffff"
   bordercolor="#666666"
   borderopacity="1.0"
   inkscape:showpageshadow="2"
   inkscape:pageopacity="0.0"
   inkscape:pagecheckerboard="0"
   inkscape:deskcolor="#d1d1d1"
   showgrid="false"
   inkscape:zoom="1.5395044"
   inkscape:cx="296.84878"
   inkscape:cy="145.50137"
   inkscape:window-width="1920"
   inkscape:window-height="993"
   inkscape:window-x="0"
   inkscape:window-y="0"
   inkscape:window-maximized="1"
   inkscape:current-layer="Capa_1" />
<style
   type="text/css"
   id="style2">
	.st0{fill:#FFC040;}
	.st1{fill:#FF4060;}
	.st2{fill:#FF8040;}
	.st3{fill:#602080;}
	.st4{fill:none;}
	.st5{fill:#0059C4;}
	.st6{fill:#4020C0;}
	.st7{fill:#C02020;}
	.st8{fill:#800020;}
</style>
<g
   id="g12"
   transform="translate(-93.3,-152.4)">
		<g
   id="g900"
   style="fill:url(#linearGradient1212);fill-opacity:1"><path
     class="st0"
     d="m 152.2,152.4 -58.9,34 v 68 l 58.9,34 58.9,-34 v -68 z m 0,112.4 -38.4,-22.2 v -44.3 l 38.4,-22.2 38.4,22.2 v 0.3 l -17.4,9.6 -21,-12.1 -21.2,12.2 v 24.4 l 21.1,12.2 20.6,-11.9 17.8,-9.8 v 19.5 z"
     id="path4"
     style="fill:url(#linearGradient1206);fill-opacity:1" /><path
     class="st1"
     d="m 387.6,152.7 -58.9,34 v 68 l 58.9,34 58.9,-34 v -68 z m 38.4,90.2 -17.3,10 v -44.3 l -21.1,-12.2 -21.1,12.2 v 44.3 l -17.3,-10 v -44.3 l 38.4,-22.2 38.4,22.2 z"
     id="path6"
     style="fill:url(#linearGradient1208);fill-opacity:1" /><path
     class="st2"
     d="m 269.9,152.4 -58.9,34 v 68 l 58.9,34 58.9,-34 v -68 z m 38.4,90.2 -17.3,10 v -18.7 h -42.3 v 18.7 l -17.3,-10 v -44.3 l 38.4,-22.2 38.4,22.2 v 44.3 z"
     id="path8"
     style="fill:url(#linearGradient1210);fill-opacity:1" /></g>
		<polygon
   class="st2"
   points="269.9,196.1 248.8,208.3 248.8,217.1 291,217.1 291,208.3 "
   id="polygon10" />
	</g>
<g
   id="g1170"
   style="fill:url(#linearGradient1234);fill-opacity:1;stroke:none;stroke-opacity:1"
   transform="translate(-93.3,-152.4)"><g
     id="g1152"
     style="fill:url(#linearGradient1218);fill-opacity:1;stroke:none;stroke-opacity:1">
		<path
   class="st3"
   d="m 445.3,272.2 -58.9,34 v 68 l 58.9,34 58.9,-34 v -68 z m 38.4,90.2 -17,9.8 v -18.9 h -42.3 v 19.2 l -17.5,-10.1 v -44.3 l 38.4,-22.2 38.4,22.2 z"
   id="path1148"
   style="fill:url(#linearGradient1214);fill-opacity:1;stroke:none;stroke-opacity:1" />
		<polygon
   class="st3"
   points="424.4,327.7 424.4,336.5 466.7,336.5 466.7,327.7 445.6,315.5 "
   id="polygon1150"
   style="fill:url(#linearGradient1216);fill-opacity:1;stroke:none;stroke-opacity:1" />
	</g><g
     id="g1158"
     style="fill:url(#linearGradient1222);fill-opacity:1;stroke:none;stroke-opacity:1">
		<polygon
   class="st4"
   points="642.5,362.4 659.7,372.4 659.7,353.3 702,353.3 702,372.4 719.3,362.4 719.3,318.1 702,308.1 702,336.5 659.7,336.5 659.7,308.1 642.5,318.1 "
   id="polygon1154"
   style="fill:none;fill-opacity:1;stroke:none;stroke-opacity:1" />
		<path
   class="st5"
   d="m 680.9,272.2 -58.9,34 v 68 l 58.9,34 58.9,-34 v -68 z m 38.4,90.2 -17.3,10 v -19.1 h -42.3 v 19.1 l -17.3,-10 v -44.3 l 17.3,-10 v 28.4 H 702 v -28.4 l 17.3,10 z"
   id="path1156"
   style="fill:url(#linearGradient1220);fill-opacity:1;stroke:none;stroke-opacity:1" />
	</g><g
     id="g1164"
     style="fill:url(#linearGradient1228);fill-opacity:1;stroke:none;stroke-opacity:1">
		<polygon
   class="st6"
   points="524.7,322.6 524.7,322.6 524.7,318.1 563.1,296 601.5,318.1 601.5,352.2 584.2,352.2 584.2,352.2 542,352.2 542,396.2 563.1,408.3 622,374.3 622,306.3 563.1,272.3 504.2,306.3 504.2,374.3 524.7,386.2 "
   id="polygon1160"
   style="fill:url(#linearGradient1224);fill-opacity:1;stroke:none;stroke-opacity:1" />
		<polygon
   class="st6"
   points="584.2,335.4 584.2,328.1 563.1,315.9 542,328.1 542,335.4 "
   id="polygon1162"
   style="fill:url(#linearGradient1226);fill-opacity:1;stroke:none;stroke-opacity:1" />
	</g><path
     class="st7"
     d="m 209.7,272.2 -58.9,34 v 68 l 58.9,34 58.9,-34 v -68 z m 38.4,90.2 -38.4,22.2 -38.4,-22.2 v -44.3 l 38.4,-22.2 v 19.9 L 188.6,328 v 24.4 l 21.1,12.2 21.1,-12.2 V 345 h -18.9 v -10.6 h 18.9 17.3 z"
     id="path1166"
     style="fill:url(#linearGradient1230);fill-opacity:1;stroke:none;stroke-opacity:1" /><path
     class="st8"
     d="m 327.5,272.2 -58.9,34 v 68 l 58.9,34 58.9,-34 v -68 z m 38.4,73.2 h -10.5 -6.8 -9.1 l 14.9,23.3 -14.1,9 -20.6,-32.3 h -0.1 v -12.1 h 29.1 v -5.2 l -21.1,-12.2 -21.1,12.2 v 44.3 l -17.3,-10 v -44.3 l 38.4,-22.2 38.4,22.2 v 27.3 z"
     id="path1168"
     style="fill:url(#linearGradient1232);fill-opacity:1;stroke:none;stroke-opacity:1" /></g><g
   id="g1182"
   transform="translate(-93.3,-152.4)">
		<g
   id="g1178"
   style="fill:url(#linearGradient931);fill-opacity:1"><path
     class="st0"
     d="m 152.2,152.4 -58.9,34 v 68 l 58.9,34 58.9,-34 v -68 z m 0,112.4 -38.4,-22.2 v -44.3 l 38.4,-22.2 38.4,22.2 v 0.3 l -17.4,9.6 -21,-12.1 -21.2,12.2 v 24.4 l 21.1,12.2 20.6,-11.9 17.8,-9.8 v 19.5 z"
     id="path1172"
     style="fill:url(#linearGradient1236);fill-opacity:1" /><path
     class="st1"
     d="m 387.6,152.7 -58.9,34 v 68 l 58.9,34 58.9,-34 v -68 z m 38.4,90.2 -17.3,10 v -44.3 l -21.1,-12.2 -21.1,12.2 v 44.3 l -17.3,-10 v -44.3 l 38.4,-22.2 38.4,22.2 z"
     id="path1174"
     style="fill:url(#linearGradient1238);fill-opacity:1" /><path
     class="st2"
     d="m 269.9,152.4 -58.9,34 v 68 l 58.9,34 58.9,-34 v -68 z m 38.4,90.2 -17.3,10 v -18.7 h -42.3 v 18.7 l -17.3,-10 v -44.3 l 38.4,-22.2 38.4,22.2 v 44.3 z"
     id="path1176"
     style="fill:url(#linearGradient1240);fill-opacity:1" /></g>
		<polygon
   class="st2"
   points="269.9,196.1 248.8,208.3 248.8,217.1 291,217.1 291,208.3 "
   id="polygon1180" />
	</g></svg>
